<svg width="25" height="25" viewBox="0 0 25 25" fill="none" xmlns="http://www.w3.org/2000/svg">
<mask id="mask0_239_44" style="mask-type:luminance" maskUnits="userSpaceOnUse" x="0" y="0" width="23" height="25">
<path d="M22.2222 0H0V25H22.2222V0Z" fill="white"/>
</mask>
<g mask="url(#mask0_239_44)">
<path d="M21.0306 4.24688C20.7701 3.89525 20.444 3.61245 20.0755 3.41856C19.707 3.22467 19.305 3.12444 18.8981 3.125H3.92778L3.88889 2.75938C3.8093 1.99939 3.48462 1.29868 2.97638 0.790081C2.46814 0.281483 1.81169 0.000356035 1.13148 0H0.925926C0.680355 0 0.444842 0.109747 0.271197 0.305097C0.0975526 0.500448 0 0.7654 0 1.04167C0 1.31793 0.0975526 1.58289 0.271197 1.77824C0.444842 1.97359 0.680355 2.08333 0.925926 2.08333H1.13148C1.35827 2.08337 1.57716 2.17704 1.74664 2.34658C1.91612 2.51612 2.02439 2.74974 2.05093 3.00313L3.325 15.1906C3.45727 16.4581 3.99859 17.6269 4.84621 18.475C5.69383 19.3232 6.78875 19.7917 7.92315 19.7917H17.5926C17.8382 19.7917 18.0737 19.6819 18.2473 19.4866C18.421 19.2912 18.5185 19.0263 18.5185 18.75C18.5185 18.4737 18.421 18.2088 18.2473 18.0134C18.0737 17.8181 17.8382 17.7083 17.5926 17.7083H7.92315C7.35005 17.7065 6.79148 17.5053 6.32401 17.1324C5.85655 16.7594 5.50307 16.2329 5.31204 15.625H16.3491C17.4345 15.6251 18.4855 15.1961 19.3184 14.413C20.1512 13.6298 20.713 12.5424 20.9056 11.3406L21.6324 6.80521C21.705 6.35522 21.6887 5.89278 21.5846 5.45066C21.4806 5.00855 21.2915 4.59758 21.0306 4.24688ZM19.8148 6.43542L19.087 10.9708C18.9714 11.6927 18.6338 12.3458 18.1332 12.8158C17.6326 13.2858 17.0011 13.5428 16.3491 13.5417H5.01759L4.1463 5.20833H18.8981C19.0342 5.20742 19.1687 5.24023 19.2922 5.30443C19.4156 5.36864 19.525 5.46265 19.6125 5.5798C19.7 5.69695 19.7635 5.83435 19.7985 5.98223C19.8335 6.13011 19.839 6.28484 19.8148 6.43542Z" fill="white"/>
<path d="M6.48125 24.9999C7.504 24.9999 8.33311 24.0672 8.33311 22.9166C8.33311 21.766 7.504 20.8333 6.48125 20.8333C5.4585 20.8333 4.62939 21.766 4.62939 22.9166C4.62939 24.0672 5.4585 24.9999 6.48125 24.9999Z" fill="white"/>
<path d="M15.7405 24.9999C16.7633 24.9999 17.5924 24.0672 17.5924 22.9166C17.5924 21.766 16.7633 20.8333 15.7405 20.8333C14.7178 20.8333 13.8887 21.766 13.8887 22.9166C13.8887 24.0672 14.7178 24.9999 15.7405 24.9999Z" fill="white"/>
</g>
</svg>
