<svg width="25" height="25" viewBox="0 0 25 25" fill="none" xmlns="http://www.w3.org/2000/svg">
<mask id="mask0_220_57" style="mask-type:alpha" maskUnits="userSpaceOnUse" x="2" y="0" width="23" height="25">
<g clip-path="url(#clip0_220_57)">
<path d="M23.8084 4.24688C23.5479 3.89525 23.2219 3.61245 22.8533 3.41856C22.4848 3.22467 22.0828 3.12444 21.676 3.125H6.70561L6.66672 2.75938C6.58714 1.99939 6.26245 1.29868 5.75421 0.790081C5.24598 0.281483 4.58952 0.000356035 3.90931 0L3.70376 0C3.45819 0 3.22267 0.109747 3.04903 0.305097C2.87538 0.500448 2.77783 0.7654 2.77783 1.04167C2.77783 1.31793 2.87538 1.58289 3.04903 1.77824C3.22267 1.97359 3.45819 2.08333 3.70376 2.08333H3.90931C4.1361 2.08337 4.355 2.17704 4.52447 2.34658C4.69395 2.51612 4.80222 2.74974 4.82876 3.00313L6.10283 15.1906C6.2351 16.4581 6.77642 17.6269 7.62404 18.475C8.47166 19.3232 9.56659 19.7917 10.701 19.7917H20.3704C20.616 19.7917 20.8515 19.6819 21.0252 19.4866C21.1988 19.2912 21.2964 19.0263 21.2964 18.75C21.2964 18.4737 21.1988 18.2088 21.0252 18.0134C20.8515 17.8181 20.616 17.7083 20.3704 17.7083H10.701C10.1279 17.7065 9.56931 17.5053 9.10185 17.1324C8.63438 16.7594 8.2809 16.2329 8.08987 15.625H19.1269C20.2124 15.6251 21.2633 15.1961 22.0962 14.413C22.929 13.6298 23.4908 12.5424 23.6834 11.3406L24.4102 6.80521C24.4828 6.35522 24.4665 5.89278 24.3625 5.45066C24.2585 5.00855 24.0693 4.59758 23.8084 4.24688ZM22.5926 6.43542L21.8649 10.9708C21.7492 11.6927 21.4116 12.3458 20.911 12.8158C20.4105 13.2858 19.7789 13.5428 19.1269 13.5417H7.79542L6.92413 5.20833H21.676C21.812 5.20742 21.9465 5.24023 22.07 5.30443C22.1935 5.36864 22.3028 5.46265 22.3904 5.5798C22.4779 5.69695 22.5414 5.83435 22.5763 5.98223C22.6113 6.13011 22.6169 6.28484 22.5926 6.43542Z" fill="black"/>
<path d="M9.25908 24.9999C10.2818 24.9999 11.1109 24.0672 11.1109 22.9166C11.1109 21.766 10.2818 20.8333 9.25908 20.8333C8.23633 20.8333 7.40723 21.766 7.40723 22.9166C7.40723 24.0672 8.23633 24.9999 9.25908 24.9999Z" fill="black"/>
<path d="M18.5184 24.9999C19.5411 24.9999 20.3702 24.0672 20.3702 22.9166C20.3702 21.766 19.5411 20.8333 18.5184 20.8333C17.4956 20.8333 16.6665 21.766 16.6665 22.9166C16.6665 24.0672 17.4956 24.9999 18.5184 24.9999Z" fill="black"/>
</g>
</mask>
<g mask="url(#mask0_220_57)">
</g>
<g clip-path="url(#clip1_220_57)">
<path d="M21.0306 4.24688C20.7701 3.89525 20.444 3.61245 20.0755 3.41856C19.707 3.22467 19.305 3.12444 18.8981 3.125H3.92778L3.88889 2.75938C3.8093 1.99939 3.48462 1.29868 2.97638 0.790081C2.46814 0.281483 1.81169 0.000356035 1.13148 0L0.925926 0C0.680355 0 0.444842 0.109747 0.271197 0.305097C0.0975526 0.500448 0 0.7654 0 1.04167C0 1.31793 0.0975526 1.58289 0.271197 1.77824C0.444842 1.97359 0.680355 2.08333 0.925926 2.08333H1.13148C1.35827 2.08337 1.57716 2.17704 1.74664 2.34658C1.91612 2.51612 2.02439 2.74974 2.05093 3.00313L3.325 15.1906C3.45727 16.4581 3.99859 17.6269 4.84621 18.475C5.69383 19.3232 6.78875 19.7917 7.92315 19.7917H17.5926C17.8382 19.7917 18.0737 19.6819 18.2473 19.4866C18.421 19.2912 18.5185 19.0263 18.5185 18.75C18.5185 18.4737 18.421 18.2088 18.2473 18.0134C18.0737 17.8181 17.8382 17.7083 17.5926 17.7083H7.92315C7.35005 17.7065 6.79148 17.5053 6.32401 17.1324C5.85655 16.7594 5.50307 16.2329 5.31204 15.625H16.3491C17.4345 15.6251 18.4855 15.1961 19.3184 14.413C20.1512 13.6298 20.713 12.5424 20.9056 11.3406L21.6324 6.80521C21.705 6.35522 21.6887 5.89278 21.5846 5.45066C21.4806 5.00855 21.2915 4.59758 21.0306 4.24688ZM19.8148 6.43542L19.087 10.9708C18.9714 11.6927 18.6338 12.3458 18.1332 12.8158C17.6326 13.2858 17.0011 13.5428 16.3491 13.5417H5.01759L4.1463 5.20833H18.8981C19.0342 5.20742 19.1687 5.24023 19.2922 5.30443C19.4156 5.36864 19.525 5.46265 19.6125 5.5798C19.7 5.69695 19.7635 5.83435 19.7985 5.98223C19.8335 6.13011 19.839 6.28484 19.8148 6.43542Z" fill="#039746"/>
<path d="M6.48125 24.9999C7.504 24.9999 8.3331 24.0672 8.3331 22.9166C8.3331 21.766 7.504 20.8333 6.48125 20.8333C5.4585 20.8333 4.62939 21.766 4.62939 22.9166C4.62939 24.0672 5.4585 24.9999 6.48125 24.9999Z" fill="#039746"/>
<path d="M15.7405 24.9999C16.7633 24.9999 17.5924 24.0672 17.5924 22.9166C17.5924 21.766 16.7633 20.8333 15.7405 20.8333C14.7178 20.8333 13.8887 21.766 13.8887 22.9166C13.8887 24.0672 14.7178 24.9999 15.7405 24.9999Z" fill="#039746"/>
</g>
<defs>
<clipPath id="clip0_220_57">
<rect width="22.2222" height="25" fill="white" transform="translate(2.77783)"/>
</clipPath>
<clipPath id="clip1_220_57">
<rect width="22.2222" height="25" fill="white"/>
</clipPath>
</defs>
</svg>
